<?xml version="1.0" standalone="no"?>
<!DOCTYPE svg PUBLIC "-//W3C//DTD SVG 20010904//EN"
 "http://www.w3.org/TR/2001/REC-SVG-20010904/DTD/svg10.dtd">
<svg version="1.0" xmlns="http://www.w3.org/2000/svg"
 width="500.000000pt" height="500.000000pt" viewBox="0 0 500.000000 500.000000"
 preserveAspectRatio="xMidYMid meet">
<metadata>
Created by potrace 1.10, written by Peter Selinger 2001-2011
</metadata>
<g transform="translate(0.000000,500.000000) scale(0.050000,-0.050000)"
fill="#000000" stroke="none">
<path d="M5065 8916 l-725 -282 0 -327 c0 -245 -6 -330 -25 -337 -429 -145
-705 -270 -704 -318 1 -29 4 -176 6 -327 l5 -275 252 -180 c139 -99 294 -210
345 -246 l92 -65 770 312 c423 172 780 322 793 333 13 11 33 14 44 7 12 -7
372 129 801 302 l781 315 0 324 0 323 -383 218 c-210 119 -388 215 -395 214
-7 -2 -58 -22 -113 -43 l-101 -40 -329 188 c-181 103 -342 187 -359 187 -16
-1 -356 -128 -755 -283z m803 116 c48 -24 -564 -312 -1207 -567 -6 -2 -33 13
-61 34 -48 37 -48 39 -10 53 22 8 234 96 470 194 237 99 502 209 590 245 88
36 161 66 163 67 1 1 26 -10 55 -26z m190 -87 c40 -15 -17 -45 -380 -200 -236
-100 -528 -227 -651 -281 l-223 -99 -55 44 -55 44 88 35 c48 19 327 137 618
261 601 256 586 251 601 229 5 -9 31 -24 57 -33z m116 -68 c31 -13 70 -21 86
-19 89 15 -68 -55 -620 -277 -581 -233 -725 -296 -630 -275 22 5 326 123 675
262 506 201 646 250 690 238 30 -8 66 -12 78 -10 13 3 29 -3 35 -13 6 -10
-317 -141 -719 -292 -754 -284 -742 -281 -809 -211 -5 6 -36 22 -68 36 -31 14
-54 29 -49 34 6 6 1256 547 1271 549 2 1 29 -9 60 -22z m576 -117 c-11 -18 15
-29 55 -22 50 8 0 -38 -85 -78 -139 -65 -113 -71 47 -10 73 27 133 41 133 31
0 -9 23 -25 51 -35 51 -17 16 -36 -336 -183 -9 -4 -14 54 -11 128 6 140 18
154 152 187 4 1 1 -7 -6 -18z m-194 -245 c-5 -192 -11 -225 -40 -231 -43 -8
-47 149 -4 197 30 34 -53 179 -103 179 -43 0 -169 -60 -169 -80 0 -27 27 -25
55 3 47 47 136 34 169 -24 l31 -54 -312 -200 c-172 -109 -465 -296 -650 -416
l-337 -217 -38 49 c-49 65 -48 69 27 114 270 159 1195 752 1187 760 -6 6 -34
-4 -61 -22 -28 -18 -76 -48 -106 -65 l-55 -33 50 42 c88 74 28 47 -192 -87
-118 -71 -225 -130 -238 -130 -13 0 -110 -35 -216 -78 l-194 -77 0 57 c0 42
-10 58 -35 59 -19 0 190 86 465 191 275 105 554 212 620 237 66 26 127 47 136
49 8 1 13 -99 10 -223z m-1914 94 c-122 -56 -134 -58 -154 -26 -8 13 -5 18 6
11 11 -7 64 5 118 26 139 54 158 47 30 -11z m2438 -7 c0 -10 24 -27 53 -36 49
-17 44 -21 -85 -75 -76 -31 -208 -86 -293 -122 l-155 -66 0 64 c1 61 6 65 225
156 247 103 255 105 255 79z m207 -110 c95 -32 117 -19 -309 -180 -406 -152
-383 -147 -374 -80 5 47 34 63 296 168 344 137 293 125 387 92z m-2610 -82
c67 -44 123 -93 123 -110 0 -21 5 -23 15 -7 11 17 28 13 59 -12 24 -20 38 -43
30 -52 -8 -8 -3 -9 10 -2 83 48 104 -22 103 -351 -1 -338 -1 -338 -71 -273
-51 48 -64 97 -16 57 47 -39 51 -23 53 225 2 277 25 236 -243 428 -274 196
-318 262 -63 97z m-62 -45 c151 -107 151 -88 -2 -174 -158 -88 -153 -89 -153
17 0 77 8 94 65 132 36 24 47 37 25 30 -83 -29 -100 -22 -106 47 -8 77 -15 79
171 -52z m1845 -61 c0 -135 -1 -137 -67 -169 l-68 -32 6 131 c6 122 56 204
124 206 3 0 5 -61 5 -136z m940 77 c0 -21 10 -45 22 -52 16 -10 15 -19 -3 -30
-16 -9 -38 0 -59 26 -39 48 -220 17 -220 -38 0 -33 24 -35 55 -4 46 46 140 35
164 -20 30 -65 76 -29 -647 -493 l-618 -395 -36 47 c-21 27 -37 54 -38 61 0 6
284 190 630 407 347 218 627 400 621 405 -5 5 -42 -11 -83 -37 -42 -25 -68
-35 -60 -22 21 35 -5 29 -81 -18 -37 -23 -63 -49 -57 -58 6 -10 0 -24 -13 -32
-14 -9 -18 -6 -9 9 23 37 -7 27 -107 -35 -74 -45 -552 -242 -588 -242 -67 0
-14 122 66 152 50 19 136 56 191 83 119 58 809 323 845 324 14 1 25 -16 25
-38z m-1431 -19 c-37 -34 -834 -524 -842 -516 -4 4 115 82 264 173 150 91 267
169 262 175 -6 6 -67 -24 -137 -65 -69 -41 -134 -79 -143 -84 -9 -5 -13 10
-10 34 5 33 46 58 177 112 193 78 202 80 149 40 -85 -65 9 -25 141 59 136 87
178 109 139 72z m308 -112 c3 -46 -5 -70 -21 -71 -14 0 -123 -39 -242 -87
-119 -48 -209 -80 -200 -71 34 32 332 219 349 219 9 0 35 18 57 40 52 52 51
52 57 -30z m269 -110 c-9 -8 -272 -116 -586 -240 -313 -123 -581 -229 -594
-234 -14 -6 -19 5 -13 27 18 68 306 235 587 342 149 56 286 108 305 116 26 10
35 3 35 -26 0 -21 5 -44 12 -50 19 -19 188 69 191 99 1 14 3 35 5 47 1 11 16
29 32 39 33 21 58 -91 26 -120z m-1226 -20 c0 -109 -69 -200 -151 -200 -30 0
-6 220 26 239 30 18 28 20 -15 16 -38 -4 -52 -19 -60 -63 -15 -88 -61 -92 -55
-5 6 87 65 123 150 92 53 -18 53 -18 15 13 -39 31 -39 32 8 18 32 -10 43 -7
33 8 -8 13 -1 17 18 10 23 -9 31 -42 31 -128z m-468 76 c130 -100 133 -292 7
-356 l-81 -42 -80 63 -80 64 151 91 c82 51 146 96 141 101 -6 5 -79 -33 -163
-84 l-153 -94 -67 52 c-89 68 -89 69 78 164 171 97 173 98 247 41z m2506 -230
c2 -77 -57 -147 -122 -146 -38 1 1 247 44 280 59 45 74 19 78 -134z m-2238
-15 c0 -38 -10 -75 -22 -82 -13 -8 -17 -40 -9 -81 8 -42 5 -68 -8 -68 -23 0
-30 264 -8 287 30 29 47 9 47 -56z m1660 61 c0 -5 -106 -74 -235 -153 -129
-80 -255 -158 -280 -174 -25 -16 -45 -24 -45 -18 0 6 90 67 201 135 110 67
196 127 191 133 -5 5 -87 -38 -182 -95 -183 -111 -194 -114 -170 -48 16 42
282 156 371 158 22 1 62 17 89 36 51 36 60 39 60 26z m392 -54 c-2 -56 -13
-67 -102 -102 -206 -82 -357 -137 -348 -127 37 37 284 184 358 213 50 20 78
37 64 37 -15 1 -21 10 -14 21 24 39 44 19 42 -42z m-2712 -61 c0 -7 -22 -18
-49 -25 -27 -7 -178 -66 -335 -132 -239 -100 -290 -115 -313 -92 -22 23 -12
29 62 40 172 26 550 192 526 231 -18 28 35 37 74 13 19 -12 35 -27 35 -35z
m1760 -72 c0 -111 -71 -205 -155 -205 -30 0 -3 209 32 237 29 24 28 26 -17 15
-29 -7 -16 5 30 28 110 54 110 54 110 -75z m-1673 19 c49 -54 -581 -325 -659
-283 -72 38 -69 40 217 156 146 58 288 119 315 134 67 37 88 36 127 -7z m135
-5 c32 -23 58 -51 58 -62 0 -25 -126 51 -136 82 -11 32 14 25 78 -20z m1334
-22 c-8 -83 -56 -102 -56 -22 0 32 6 64 13 72 31 30 49 9 43 -50z m-1083 -111
c-11 -10 -111 56 -112 74 -1 6 24 26 54 44 l55 34 6 -71 c4 -39 2 -75 -3 -81z
m2247 119 c0 -25 -18 -36 -65 -39 -68 -5 -141 -32 -348 -128 -68 -31 -153 -62
-188 -68 -36 -7 -89 -28 -117 -48 -73 -50 -102 -66 -102 -55 0 30 250 159 499
256 335 131 321 128 321 82z m-1340 -235 c0 -126 -4 -230 -8 -230 -5 0 -22 -5
-39 -12 -42 -16 -42 171 0 202 25 18 20 34 -32 105 l-60 84 -85 -30 c-47 -17
-92 -42 -100 -57 -29 -51 -391 -251 -596 -329 -115 -43 -226 -85 -245 -93 -29
-12 -35 -3 -35 48 0 74 9 72 -129 21 -70 -26 -112 -54 -114 -75 -2 -19 -5 -51
-6 -72 -1 -22 -13 -43 -28 -48 -19 -6 -24 14 -19 76 l6 84 319 118 c175 65
333 118 350 119 17 0 202 72 411 159 209 87 387 159 395 159 8 1 15 -102 15
-229z m-1124 121 c-3 -3 -147 -65 -319 -139 l-312 -134 -62 37 -62 38 325 139
324 140 56 -38 c31 -21 54 -40 50 -43z m144 -13 c0 -25 -24 -21 -65 10 -56 42
-43 78 15 40 28 -18 50 -41 50 -50z m1060 -59 c0 -44 -9 -79 -20 -79 -11 0
-20 41 -20 91 0 56 8 87 20 79 11 -7 20 -48 20 -91z m-780 11 c0 -25 11 -50
24 -55 14 -4 -4 -18 -40 -30 l-64 -23 0 77 c0 44 11 82 25 87 38 13 55 -4 55
-56z m880 1 c0 -38 -10 -75 -22 -82 -13 -8 -17 -40 -9 -81 8 -42 5 -68 -8 -68
-13 0 -21 59 -21 150 0 120 6 150 30 150 21 0 30 -21 30 -69z m-1229 17 c63
-42 62 -60 -6 -77 -30 -8 -174 -63 -320 -124 -247 -102 -267 -108 -308 -79
-43 30 -42 31 55 72 237 102 460 202 488 220 38 25 33 25 91 -12z m830 -6
c-64 -50 -161 -107 -161 -95 0 11 182 133 198 133 7 -1 -10 -18 -37 -38z m117
-35 c30 -66 102 -11 -637 -485 l-629 -404 -36 46 c-52 68 -72 53 615 488 729
461 656 423 687 355z m-809 -57 c50 -38 68 -28 -297 -166 -261 -99 -325 -116
-355 -97 -57 35 -55 37 268 166 346 139 332 136 384 97z m-927 -125 c110 -71
178 -128 178 -150 0 -32 -338 193 -371 247 -23 37 19 15 193 -97z m-133 4
c173 -122 173 -117 12 -199 l-141 -71 0 101 c0 55 7 100 16 100 9 0 34 14 55
30 36 28 35 29 -17 10 -77 -27 -74 -29 -74 50 0 87 -8 88 149 -21z m2048 -15
c-5 -151 -34 -174 -36 -28 -1 85 6 132 19 124 11 -7 18 -50 17 -96z m-177 -88
c0 -97 -52 -166 -124 -166 -41 0 -7 244 38 280 67 52 85 28 86 -114z m300 15
c0 -20 -18 -41 -40 -47 -46 -12 -60 75 -15 92 36 13 55 -3 55 -45z m-520 -13
c-46 -27 -47 -29 -5 -17 35 9 45 3 45 -27 0 -34 -173 -116 -470 -221 -11 -4
61 45 160 110 99 64 202 133 230 152 27 19 58 35 69 34 12 0 -1 -14 -29 -31z
m-543 -42 c-24 -30 -23 -32 13 -19 70 26 10 -16 -250 -178 -137 -85 -272 -169
-299 -187 -27 -18 -44 -23 -37 -11 7 11 135 96 285 188 150 92 267 171 262
177 -5 5 -75 -30 -155 -78 -80 -49 -152 -91 -158 -94 -7 -3 -9 16 -4 42 8 38
36 57 133 92 68 24 146 57 173 72 65 37 70 37 37 -4z m863 -1 c-1 -70 -34 -94
-60 -45 -19 36 -19 48 3 62 41 26 57 22 57 -17z m-1683 -61 l47 -38 -159 -93
c-184 -108 -172 -105 -247 -52 -81 58 -77 64 97 165 161 93 166 94 262 18z
m103 36 c40 -21 58 -360 19 -360 -11 0 -19 62 -19 138 0 97 -9 144 -30 162
-59 49 -37 96 30 60z m340 -89 c0 -97 -111 -247 -152 -205 -42 41 -8 262 43
285 101 44 109 38 109 -80z m960 2 c0 -17 -32 -33 -82 -41 -45 -7 -117 -31
-160 -53 -43 -22 -78 -36 -78 -30 0 5 -44 -13 -97 -40 -54 -26 -115 -51 -136
-54 -21 -3 -85 -31 -142 -61 -127 -66 -135 -59 -20 17 170 112 715 312 715
262z m-1340 -224 l0 -212 -62 44 -62 44 57 49 57 50 -70 -39 -70 -39 -85 61
-86 60 146 95 c80 52 152 96 160 97 8 0 15 -94 15 -210z m180 42 c0 -38 -9
-74 -20 -81 -28 -17 -15 -147 15 -159 41 -16 29 -82 -15 -86 -38 -2 -40 10
-40 196 0 164 5 199 30 199 21 0 30 -21 30 -69z m-103 -222 c-3 -132 -37 -131
-37 1 0 67 8 108 19 100 11 -6 19 -52 18 -101z"/>
<path d="M3460 7641 c0 -31 13 -41 51 -41 66 0 60 67 -6 76 -34 5 -45 -3 -45
-35z"/>
<path d="M7050 7319 c-44 -9 -251 -49 -460 -89 -903 -170 -902 -170 -1162
-409 -252 -233 -454 -321 -737 -321 -98 0 -311 -81 -311 -118 0 -7 -39 -9 -86
-3 -100 13 -500 256 -485 295 9 24 -379 246 -429 246 -20 0 -2587 -1037 -2591
-1047 -1 -2 2 -43 6 -93 l8 -90 239 -130 c237 -129 241 -132 357 -301 l118
-171 -153 -102 c-216 -143 -435 -335 -564 -494 -104 -128 -313 -292 -372 -292
-16 0 -28 -10 -28 -21 0 -89 265 93 499 342 293 312 594 543 686 526 88 -16
365 -194 470 -301 l85 -88 0 -566 0 -566 101 -54 c191 -104 308 -103 464 4
l78 54 -12 305 c-6 168 -7 305 -2 305 6 0 54 -27 108 -60 54 -33 109 -60 122
-60 14 0 122 -90 240 -200 118 -110 231 -200 251 -200 20 0 76 -25 125 -55
l89 -55 -14 -572 -14 -573 67 -49 c156 -116 321 -144 437 -74 165 99 161 87
146 435 l-13 311 97 -79 c53 -43 117 -79 142 -79 30 0 131 -81 305 -245 143
-135 275 -245 293 -245 45 0 590 -398 590 -431 0 -14 37 -57 82 -96 l82 -70
-7 -643 -6 -644 80 -48 c197 -120 334 -121 505 -4 l88 60 -13 303 c-6 167 -14
400 -16 518 l-5 216 630 266 c347 146 747 318 890 381 143 63 271 119 285 125
20 9 25 -74 25 -379 l0 -391 75 -62 c143 -118 300 -127 498 -30 l111 54 -7
549 -7 549 175 72 175 72 -1 111 0 112 -169 119 -169 118 -5 241 -6 241 -110
55 c-145 73 -278 74 -442 5 -133 -56 -127 -57 -251 57 -41 38 -78 55 -110 50
-52 -9 -630 367 -641 416 -3 15 -127 99 -276 186 -201 118 -272 170 -280 205
-8 34 -52 69 -155 123 l-145 76 0 259 0 258 -79 52 c-126 84 -281 89 -425 12
l-114 -60 -55 43 c-30 24 -76 40 -101 37 -33 -4 -122 49 -298 177 -297 216
-282 209 -368 173 -63 -27 -72 -25 -144 22 l-76 50 0 276 0 275 -65 42 -65 41
90 1 c131 1 270 74 441 233 309 286 392 319 1176 468 668 126 623 116 623 139
0 22 1 22 -110 -1z m-3505 -596 c63 -14 119 -33 124 -41 13 -21 84 11 -1234
-543 l-1136 -477 -194 93 -195 94 88 15 c110 19 264 67 377 118 46 21 98 38
114 38 16 0 33 8 39 17 6 10 74 38 151 63 90 29 136 53 127 67 -7 13 -6 17 2
10 9 -8 46 -1 84 15 37 16 68 22 68 13 0 -8 7 -5 15 6 21 31 178 90 194 73 8
-7 23 2 33 21 11 19 41 35 67 35 26 0 51 7 54 15 4 9 97 51 207 94 110 43 206
86 212 96 7 10 16 18 20 17 28 -4 98 26 98 42 0 10 7 14 16 9 9 -6 68 11 131
37 64 25 160 53 214 60 55 8 95 20 90 28 -13 21 106 14 234 -15z m253 -174
c39 -67 159 -137 270 -158 23 -4 47 -9 52 -10 62 -15 -1574 -695 -1705 -709
-164 -18 -275 -66 -275 -119 -1 -38 -370 -222 -515 -257 -54 -13 -288 332
-239 351 25 10 557 232 1184 494 1294 541 1173 500 1228 408z m1068 -189 c74
-68 -231 -132 -322 -68 -25 17 -61 26 -79 19 -26 -10 -11 -27 66 -72 115 -68
194 -74 281 -21 l62 38 -29 -123 c-33 -144 -20 -240 39 -282 147 -102 -259
-205 -413 -104 l-53 35 4 286 c2 191 11 286 26 289 242 36 382 37 418 3z
m-486 -236 l-1 -154 -623 -260 c-343 -143 -703 -293 -800 -334 l-176 -74 0
128 0 128 -80 48 -81 48 616 256 c1117 466 1023 432 1088 398 55 -28 57 -34
57 -184z m56 -400 c153 -105 312 -108 453 -9 82 57 87 58 130 26 45 -34 44
-35 -122 -107 -92 -41 -668 -293 -1281 -561 l-1114 -486 -146 118 c-192 157
-201 166 -101 115 251 -130 507 3 525 273 l10 150 140 59 c77 33 410 173 740
311 330 138 623 263 650 277 49 26 50 25 56 -51 5 -58 20 -87 60 -115z m-3251
-57 c74 -37 95 -58 95 -97 0 -47 -5 -45 -125 46 -69 52 -148 109 -175 128 -64
44 51 1 205 -77z m4048 40 c-7 -7 3 -23 23 -35 126 -76 184 -118 184 -134 0
-10 11 -18 23 -18 13 0 41 -16 62 -35 22 -19 75 -49 119 -66 l80 -32 -517
-227 c-284 -124 -902 -396 -1373 -603 -471 -207 -861 -377 -866 -377 -35 0
-463 331 -442 343 167 92 2742 1218 2707 1184z m-2566 -125 l73 -45 0 -285 c0
-270 -2 -287 -45 -326 -125 -114 -318 -140 -457 -62 l-78 43 12 312 c14 379 6
353 122 390 128 41 281 30 373 -27z m-1220 -198 c51 -80 93 -155 93 -168 0
-12 -34 31 -77 96 -42 65 -91 130 -110 145 -18 16 -33 47 -33 69 0 53 11 40
127 -142z m693 -142 c0 -264 3 -263 -289 -119 -174 86 -229 121 -200 129 21 6
129 50 239 97 269 117 250 125 250 -107z m3671 100 c-12 -21 98 -51 124 -35
43 27 66 -31 77 -198 l12 -179 -799 -336 c-969 -408 -888 -383 -873 -269 15
104 -63 197 -212 255 l-78 31 354 153 c1493 648 1420 618 1395 578z m630 -21
c17 0 49 -14 70 -30 95 -70 -191 -133 -366 -80 -79 24 -49 -25 41 -69 107 -52
145 -52 243 -2 93 47 103 42 73 -42 -41 -118 -9 -318 43 -266 31 31 25 -79 -6
-119 -81 -103 -240 -118 -394 -38 l-75 39 -4 302 -4 302 84 6 c46 3 125 4 174
2 50 -2 104 -4 121 -5z m-4614 -241 c200 -93 213 -103 213 -158 l0 -59 -77 74
c-82 79 -297 203 -351 203 -18 0 -32 9 -32 20 0 33 24 25 247 -80z m529 -420
c119 -87 145 -125 104 -150 -23 -14 -245 149 -324 239 -81 91 -70 125 20 58
42 -31 132 -97 200 -147z m3664 123 c0 -184 306 -270 506 -143 52 32 94 72 94
88 0 19 18 11 56 -25 30 -29 72 -63 93 -74 36 -21 -2604 -1143 -2646 -1125
-39 17 -263 163 -258 168 3 3 41 -2 84 -12 100 -22 179 -8 286 53 112 64 128
101 123 283 -5 145 -2 155 44 177 26 13 380 165 787 337 406 172 753 320 770
330 52 31 61 23 61 -57z m-3699 -247 c86 -61 119 -96 119 -130 0 -34 35 -69
140 -141 l141 -95 7 -305 c9 -337 0 -361 -128 -348 -42 5 -249 91 -280 117 -5
5 -15 141 -23 302 -15 318 -36 466 -84 599 -38 104 -38 104 108 1z m1897 -51
l108 -74 -14 -280 c-9 -183 -24 -296 -42 -323 -70 -108 -305 -150 -432 -76
l-68 40 0 339 0 339 110 66 c133 80 183 76 338 -31z m2663 40 c1 -100 299
-279 484 -291 67 -5 -4 -36 -756 -334 -417 -166 -1053 -419 -1413 -562 l-654
-260 -199 166 c-228 189 -225 185 -138 214 36 12 641 265 1345 562 1340 565
1330 561 1331 505z m-4016 -332 c52 -35 94 -70 95 -78 0 -9 -20 -3 -45 14 -25
16 -52 27 -61 25 -45 -11 -373 218 -373 262 -1 41 10 37 144 -58 80 -56 188
-131 240 -165z m845 13 l0 -253 -99 -44 -100 -43 -150 110 c-83 60 -181 132
-217 159 l-67 49 317 137 c174 75 316 137 316 138 0 0 0 -113 0 -253z m3757
-76 c-8 -47 237 -222 276 -198 13 8 18 6 11 -5 -6 -10 7 -30 29 -44 28 -17 36
-18 27 -3 -8 13 31 -7 86 -43 73 -48 93 -71 74 -82 -15 -9 -636 -263 -1379
-564 -742 -302 -1369 -559 -1391 -571 -42 -22 -560 406 -529 437 28 29 2723
1100 2759 1097 22 -2 39 -13 37 -24z m-4182 -172 c182 -138 195 -153 194 -218
l0 -70 -120 126 c-65 69 -119 120 -119 115 0 -6 -18 4 -39 23 -21 18 -34 42
-27 53 7 10 3 14 -8 7 -11 -7 -37 5 -56 26 -20 22 -48 40 -63 40 -15 0 -27 15
-27 32 0 53 56 25 265 -134z m435 -138 c0 -60 0 -61 -50 -28 -72 47 -62 71 35
86 8 1 15 -25 15 -58z m94 -179 c126 -88 239 -162 251 -166 25 -8 0 -135 -28
-135 -32 0 -282 180 -339 243 -28 32 -73 62 -98 67 -67 13 -87 40 -72 99 18
73 29 69 286 -108z m4337 58 c20 -22 47 -36 60 -31 71 27 129 -95 128 -269 l0
-169 -855 -337 c-469 -186 -870 -342 -889 -347 -31 -9 -35 5 -35 111 0 256
-335 339 -636 158 l-66 -39 3 -262 3 -262 -79 -29 -80 -29 -231 188 c-127 103
-232 193 -233 199 0 6 91 47 204 92 244 96 1827 736 2295 928 379 156 362 152
411 98z m731 -75 c56 -22 66 -114 29 -280 -15 -68 20 -192 49 -174 9 5 20 -20
26 -55 28 -186 -294 -276 -517 -145 l-85 49 -2 266 c-1 194 4 256 19 230 12
-20 30 -31 41 -24 11 7 2 35 -20 66 l-38 54 73 -7 c40 -3 114 7 163 22 99 31
182 30 262 -2z m-4969 -259 c84 -54 147 -109 147 -128 0 -18 54 -80 120 -137
123 -107 173 -240 90 -240 -25 0 -30 -40 -30 -242 0 -228 2 -241 35 -216 33
26 33 25 1 -12 -108 -128 -234 -115 -382 37 -81 84 -94 165 -94 601 0 211 -8
296 -30 339 -63 120 -44 120 143 -2z m607 -376 c0 -85 -36 -71 -219 81 -166
138 -181 157 -181 222 l0 71 200 -164 c149 -122 200 -175 200 -210z m3835 126
c-33 -222 282 -325 560 -182 91 46 117 70 128 118 7 32 13 45 15 28 2 -38 106
-118 179 -139 68 -19 141 13 -1267 -554 -616 -248 -1227 -495 -1358 -548 -291
-120 -218 -134 -571 106 l-300 204 62 26 c79 33 77 34 77 -21 0 -158 313 -224
535 -112 l122 61 11 124 c7 68 14 151 17 183 5 58 15 63 885 413 1008 406 917
377 905 293z m-3487 -325 c242 -213 250 -223 250 -300 l0 -80 -34 49 c-44 62
-349 360 -370 360 -48 2 -145 96 -151 148 -10 88 29 65 305 -177z m1458 58
c35 -18 91 -53 124 -78 l60 -44 -6 -293 -6 -292 -59 -42 c-83 -59 -267 -90
-370 -62 -148 41 -146 37 -153 391 l-6 318 120 67 c134 74 202 82 296 35z
m2974 -17 c0 -19 -113 -121 -141 -128 -16 -3 -33 -14 -39 -24 -13 -20 -304
-156 -600 -279 -341 -142 -1858 -792 -2005 -859 -74 -33 -139 -61 -145 -61
-16 0 -11 167 5 191 32 45 2925 1192 2925 1160z m-3815 -520 c178 -144 215
-183 215 -228 0 -53 -4 -52 -115 56 -146 140 -269 224 -334 228 -46 3 -51 11
-51 91 0 82 2 86 35 58 19 -17 132 -109 250 -205z m3475 171 c0 -21 -11 -42
-25 -47 -19 -7 -24 -105 -19 -426 7 -451 -5 -517 -84 -498 -23 5 -87 13 -142
19 -167 15 -190 58 -190 362 0 248 -18 322 -89 372 -27 19 -33 16 259 142 296
129 290 127 290 76z m-2880 -620 c127 -83 233 -153 237 -155 4 -3 0 -56 -10
-118 l-17 -113 -175 143 c-97 79 -171 151 -165 160 5 9 -32 54 -82 101 -51 47
-100 111 -109 144 l-17 59 54 -35 c30 -19 158 -103 284 -186z m43 -294 c203
-161 195 -158 286 -120 l75 31 -11 -304 c-17 -501 -38 -664 -89 -687 -50 -22
-103 -25 -116 -5 -6 9 -36 17 -68 17 -87 0 -122 45 -147 190 -4 22 -12 54 -18
70 -7 17 -17 174 -24 350 -14 371 -26 493 -52 519 -19 19 -27 71 -11 71 5 0
84 -59 175 -132z"/>
<path d="M2224 5455 c35 -117 312 -153 436 -56 69 53 42 67 -59 31 -116 -41
-197 -38 -291 10 -92 47 -96 48 -86 15z"/>
<path d="M3874 4299 c107 -100 184 -105 303 -19 82 59 106 100 60 100 -13 0
-41 -16 -63 -35 -50 -45 -211 -45 -281 1 -94 62 -104 34 -19 -47z"/>
<path d="M8810 3529 c-80 -65 -166 -79 -257 -42 -83 35 -94 19 -28 -42 112
-105 214 -93 323 36 87 103 64 132 -38 48z"/>
<path d="M6322 2647 c-84 -58 -159 -60 -265 -6 -103 53 -113 43 -34 -38 108
-110 208 -109 331 4 86 79 64 107 -32 40z"/>
<path d="M3426 7147 c-15 -39 59 -107 117 -107 54 0 68 54 26 101 -43 48 -126
51 -143 6z"/>
<path d="M1996 3745 c-208 -239 66 -566 453 -541 384 24 643 352 422 535 -39
32 -39 4 0 -48 88 -117 8 -290 -179 -385 -379 -193 -876 88 -691 391 46 75 42
103 -5 48z"/>
<path d="M3053 3205 c-6 -11 1 -36 17 -57 46 -61 39 -127 -13 -117 -23 4 -36
1 -28 -7 8 -8 20 -14 28 -14 7 0 23 -7 36 -15 12 -8 34 0 48 17 21 24 21 34 2
46 -14 9 -28 40 -31 70 -6 61 -41 106 -59 77z"/>
<path d="M3000 3163 c0 -31 -12 -43 -45 -44 -39 0 -40 -3 -12 -20 49 -28 96
-3 86 45 -11 59 -29 71 -29 19z"/>
<path d="M3195 3039 c50 -54 31 -104 -36 -95 -76 12 -50 -18 29 -32 95 -17
100 87 7 140 -20 11 -20 8 0 -13z"/>
<path d="M3524 2632 c-202 -231 -59 -532 276 -580 202 -29 240 -31 240 -14 0
11 -52 25 -115 33 -403 49 -552 246 -387 513 76 122 70 143 -14 48z"/>
<path d="M4597 2390 c-8 -7 -1 -44 15 -81 42 -100 36 -285 -11 -363 -146 -239
-690 -259 -1019 -37 -119 80 -136 62 -27 -28 307 -253 948 -206 1096 81 54
104 5 488 -54 428z"/>
<path d="M9118 1972 c25 -26 50 -85 56 -130 6 -45 20 -82 31 -82 34 0 -4 166
-49 215 -24 25 -52 45 -63 45 -11 0 0 -22 25 -48z"/>
<path d="M8161 1745 c-134 -482 355 -804 853 -563 151 73 284 368 191 425 -11
7 -15 -8 -10 -34 76 -401 -678 -594 -947 -242 -61 79 -84 327 -42 444 11 28 9
45 -4 45 -11 0 -29 -34 -41 -75z"/>
<path d="M4746 1690 c-19 -21 -18 -32 5 -51 22 -18 31 -17 40 5 17 46 72 36
64 -12 -3 -25 -18 -39 -35 -35 -17 3 -23 -1 -14 -9 24 -25 91 -29 104 -8 7 11
3 20 -8 20 -11 0 -16 13 -10 29 6 15 29 25 50 21 22 -5 34 0 28 9 -5 10 -26
15 -45 12 -19 -3 -46 3 -60 14 -14 11 -25 14 -25 7 0 -7 -16 -5 -35 5 -24 13
-43 10 -59 -7z"/>
<path d="M7800 1653 c0 -55 13 -63 55 -36 20 12 16 25 -15 53 -39 35 -40 35
-40 -17z"/>
<path d="M5018 1656 c-12 -49 -11 -74 1 -66 9 5 28 -4 41 -21 29 -33 -24 -34
-78 0 -22 13 -26 8 -17 -26 10 -37 4 -42 -37 -34 -28 5 -44 0 -37 -11 6 -10
20 -14 30 -7 10 6 32 -19 48 -55 17 -36 26 -46 20 -22 -16 66 25 135 62 105
41 -34 37 -99 -6 -100 -33 0 -33 -2 1 -21 65 -38 97 -9 64 56 -16 31 -25 71
-19 89 6 18 -3 37 -22 44 -17 7 -26 21 -20 31 6 11 3 25 -9 32 -11 7 -21 10
-22 6z"/>
<path d="M7541 1546 c14 -61 6 -75 -43 -69 -6 0 -11 -11 -11 -26 0 -23 7 -23
43 1 33 21 42 43 34 81 -6 31 1 58 18 68 20 13 16 16 -14 14 -37 -3 -40 -11
-27 -69z"/>
<path d="M5248 1436 c1 -33 -8 -44 -33 -40 -21 3 -35 -7 -35 -25 0 -17 -9 -31
-20 -31 -11 0 -20 -9 -20 -20 0 -11 21 -18 48 -16 32 3 44 14 37 33 -7 18 -1
25 17 19 15 -5 31 -34 35 -65 4 -36 -2 -51 -15 -42 -12 7 -22 5 -22 -5 0 -11
22 -24 49 -29 28 -5 45 -2 39 8 -6 9 1 17 15 17 16 0 14 9 -7 25 -42 33 -72
127 -33 104 15 -9 13 0 -7 23 -18 21 -33 46 -33 55 0 9 -4 20 -9 25 -5 5 -8
-11 -6 -36z"/>
<path d="M7360 1454 c0 -14 11 -37 24 -50 24 -24 0 -35 -54 -25 -11 2 -9 -8 5
-22 19 -19 30 -20 49 -1 30 30 40 89 11 71 -14 -9 -17 -1 -9 20 7 18 4 33 -7
33 -10 0 -19 -12 -19 -26z"/>
<path d="M7242 1429 c-1 -23 9 -53 23 -68 20 -22 18 -25 -11 -14 -21 7 -31 5
-24 -7 7 -11 4 -20 -7 -20 -11 0 -24 11 -30 25 -7 19 -10 18 -11 -2 -1 -18
-15 -12 -38 16 l-35 44 -4 -50 c-3 -28 4 -56 13 -62 10 -6 14 9 8 34 -7 34 -5
38 11 16 11 -15 40 -31 64 -35 55 -8 107 31 81 62 -10 12 -22 40 -28 62 -9 39
-9 39 -12 -1z"/>
<path d="M7064 1310 c8 -84 91 -121 111 -50 5 18 1 22 -8 10 -39 -46 -79 -30
-83 34 -3 35 -10 69 -16 75 -7 6 -8 -25 -4 -69z"/>
<path d="M5394 1221 c6 -23 -1 -57 -16 -76 -15 -19 -19 -29 -10 -21 9 7 37 5
63 -4 37 -15 45 -12 36 11 -6 16 -20 23 -31 16 -12 -7 -15 4 -8 28 8 23 1 49
-16 63 -24 20 -27 17 -18 -17z"/>
<path d="M5675 820 c-235 -274 -28 -645 396 -709 87 -13 75 -5 -111 69 -369
149 -458 415 -224 665 28 30 42 55 29 55 -12 0 -53 -36 -90 -80z"/>
<path d="M6600 842 c0 -9 36 -30 79 -47 165 -65 219 -350 76 -400 -14 -5 -18
-17 -8 -27 72 -78 160 189 105 321 -36 87 -252 217 -252 153z"/>
</g>
</svg>
